<svg viewBox="0 0 200 200" width="100%" height="100%" xmlns="http://www.w3.org/2000/svg">
  <line x1="20" y1="180" x2="120" y2="80" stroke="currentColor" stroke-width="4" stroke-linecap="round" stroke-opacity="0.95"/>
  <line x1="20" y1="180" x2="160" y2="140" stroke="currentColor" stroke-width="2" stroke-linecap="round" stroke-opacity="0.8"/>
  <line x1="20" y1="180" x2="80" y2="40" stroke="currentColor" stroke-width="2" stroke-linecap="round" stroke-opacity="0.8"/>
  <!-- Dot matrix -->
  <g fill="currentColor" fill-opacity="0.8">
    <circle cx="80" cy="170" r="4.5"/>
    <circle cx="60" cy="170" r="4.5"/>
    <circle cx="80" cy="150" r="4.5"/>
    <circle cx="60" cy="150" r="4.5"/>
    <circle cx="100" cy="170" r="4.5"/>
    <circle cx="100" cy="150" r="4.5"/>
  </g>
  <!-- Retro star -->
  <g transform="translate(30, 160)">
    <path d="M 0,-35 L 10,-10 L 35,-10 L 15,8 L 24,32 L 0,18 L -24,32 L -15,8 L -35,-10 L -10,-10 Z" fill="currentColor" fill-opacity="0.95"/>
    <circle cx="0" cy="0" r="5" fill="#ffffff"/>
  </g>
  <!-- Accent star -->
  <g transform="translate(125, 100) scale(0.65)">
    <path d="M 0,-20 L 6,-6 L 20,-6 L 10,4 L 14,18 L 0,10 L -14,18 L -10,4 L -20,-6 L -6,-6 Z" fill="currentColor" fill-opacity="0.9"/>
  </g>
</svg>
