<svg viewBox="0 0 200 200" width="100%" height="100%" xmlns="http://www.w3.org/2000/svg">
  <polygon points="0,200 0,40 60,120 120,60 200,160 200,200" fill="currentColor" fill-opacity="0.35"/>
  <polygon points="0,200 0,100 50,150 90,110 140,170 140,200" fill="currentColor" fill-opacity="0.55"/>
  <polygon points="0,200 0,160 20,180 40,160 80,200" fill="currentColor" fill-opacity="0.75"/>
  <!-- Rays -->
  <line x1="200" y1="200" x2="0" y2="0" stroke="currentColor" stroke-width="2.5" stroke-opacity="0.9"/>
  <line x1="200" y1="200" x2="40" y2="0" stroke="currentColor" stroke-width="1" stroke-opacity="0.6"/>
  <line x1="200" y1="200" x2="200" y2="40" stroke="currentColor" stroke-width="1" stroke-opacity="0.6"/>
  <!-- Star at highest peak -->
  <polygon points="60,105 62,110 67,112 62,114 60,119 58,114 53,112 58,110" fill="currentColor" fill-opacity="0.95"/>
  <polygon points="120,45 121,48 124,49 121,50 120,53 119,50 116,49 119,48" fill="currentColor" fill-opacity="0.95"/>
</svg>
