<svg viewBox="0 0 200 200" width="100%" height="100%" xmlns="http://www.w3.org/2000/svg">
  <!-- Main vine branch -->
  <path d="M 200,40 Q 150,50 110,90 T 40,200" fill="none" stroke="currentColor" stroke-width="3" stroke-linecap="round" stroke-opacity="0.85"/>
  <path d="M 200,10 Q 170,20 140,50 T 90,120" fill="none" stroke="currentColor" stroke-width="1.5" stroke-linecap="round" stroke-opacity="0.6"/>
  <!-- Stylized warm leaves -->
  <path d="M 150,65 C 160,50 180,50 175,70 C 165,80 155,75 150,65 Z" fill="currentColor" fill-opacity="0.8"/>
  <path d="M 115,95 C 120,80 140,80 135,100 C 125,105 120,100 115,95 Z" fill="currentColor" fill-opacity="0.8"/>
  <path d="M 75,130 C 75,115 95,110 95,130 C 85,140 80,135 75,130 Z" fill="currentColor" fill-opacity="0.8"/>
  <path d="M 50,170 C 45,155 65,150 65,170 C 55,180 50,175 50,170 Z" fill="currentColor" fill-opacity="0.8"/>
  <!-- Small soft buds -->
  <circle cx="180" cy="30" r="5" fill="currentColor" fill-opacity="0.9"/>
  <circle cx="130" cy="40" r="4" fill="currentColor" fill-opacity="0.75"/>
  <circle cx="95" cy="80" r="4.5" fill="currentColor" fill-opacity="0.75"/>
</svg>
