<svg viewBox="0 0 200 200" width="100%" height="100%" xmlns="http://www.w3.org/2000/svg">
  <!-- Elegant concentric circular ripples -->
  <path d="M 0,60 A 140,140 0 0,1 140,200" fill="none" stroke="currentColor" stroke-width="1.5" stroke-opacity="0.75"/>
  <path d="M 0,90 A 110,110 0 0,1 110,200" fill="none" stroke="currentColor" stroke-width="0.75" stroke-opacity="0.5"/>
  <!-- Gorgeous crescent moon -->
  <path d="M 175,25 C 160,25 140,40 140,65 C 140,90 160,105 175,105 C 160,105 150,90 150,65 C 150,40 160,25 175,25 Z" fill="currentColor" fill-opacity="0.95"/>
  <!-- Shining stars -->
  <polygon points="120,40 122,45 127,47 122,49 120,54 118,49 113,47 118,45" fill="currentColor" fill-opacity="0.9"/>
  <polygon points="150,110 151,113 154,114 151,115 150,118 149,115 146,114 149,113" fill="currentColor" fill-opacity="0.8"/>
  <circle cx="100" cy="80" r="2.5" fill="currentColor" fill-opacity="0.85"/>
  <circle cx="70" cy="130" r="2" fill="currentColor" fill-opacity="0.6"/>
</svg>
